PathFileType	4	(X/Y/Z)	D:\TRACE\v60_Jaco2_6-2-23\JustBodyDRS_Motion1_8-platform.trc
DataRate	CameraRate	NumFrames	NumMarkers	Units	OrigDataRate	OrigDataStartFrame	OrigNumFrames
100.00	100.00	      24	5	mm	100.00	840	      6712
Frame#	Time	Left_Front			Right_Front			Left_Aft			Right_Aft			Post			
		X1	Y1	Z1	X2	Y2	Z2	X3	Y3	Z3	X4	Y4	Z4	X5	Y5	Z5	

840	8.390	-834.59387	31.98136	-632.81219	735.75494	32.50719	-638.12213	-742.16724	-8.63017	501.71960	699.75800	-10.06397	510.87332	-47.87952	1341.40808	-909.84711	
841	8.400	-835.12213	32.29808	-632.46747	734.66168	32.96203	-638.00299	-742.93561	-8.85357	501.79709	698.84869	-10.31693	510.87332	-48.15843	1341.81909	-908.78571	
842	8.410	-835.62537	32.64657	-632.32599	733.82397	33.48415	-637.69562	-743.78998	-9.02304	501.97192	696.93176	-11.38375	510.54996	-49.20142	1342.21729	-907.84943	
843	8.420	-836.71204	33.14534	-632.15332	733.29266	33.93080	-637.74493	-744.45728	-9.27929	502.05029	696.82104	-11.35293	510.76984	-50.15983	1342.69653	-907.00592	
844	8.430	-837.65161	33.70454	-632.25897	732.61987	34.36912	-637.70276	-745.02704	-9.53955	502.00159	695.69788	-11.30000	511.18301	-50.62498	1342.98096	-906.65259	
845	8.440	-838.36139	33.96849	-632.33386	731.83264	34.47346	-637.52899	-745.84088	-9.59597	501.86371	695.12054	-11.59541	511.33438	-51.30520	1343.35535	-906.64215	
846	8.450	-838.97607	34.03003	-632.38525	730.95721	34.41117	-637.35236	-746.85126	-9.88899	502.17545	694.46149	-11.71798	511.59305	-52.14996	1344.05359	-906.74310	
847	8.460	-839.52435	34.23360	-632.18573	730.19604	34.96767	-637.32489	-747.50684	-10.15057	502.23349	694.01801	-11.96401	511.90338	-52.62395	1344.72864	-906.40613	
848	8.470	-840.48083	34.92981	-631.70654	729.75317	35.24873	-637.24371	-748.20160	-10.35104	502.31830	693.26752	-12.27436	511.77151	-53.36269	1345.26807	-905.69019	
849	8.480	-841.01227	35.29570	-631.75092	729.06165	35.50096	-637.08307	-748.68884	-10.60954	502.51373	692.51062	-12.85901	511.52982	-53.79803	1345.91199	-905.18866	
850	8.490	-841.68561	35.60639	-631.72296	728.36969	36.16531	-636.94202	-749.48035	-10.75748	502.51523	691.93298	-13.05376	511.52481	-54.53377	1346.18774	-904.23047	
851	8.500	-842.29395	35.94201	-631.61346	727.53363	36.65710	-637.03998	-750.11108	-10.94661	502.45227	690.92932	-13.57160	511.06848	-55.83642	1346.50439	-903.27197	
852	8.510	-842.85138	36.07197	-631.60590	727.11823	36.65399	-636.91858	-750.51447	-11.13777	502.50046	690.82440	-13.17165	511.80060	-55.85608	1347.09558	-901.81140	
853	8.520	-843.63916	36.12243	-631.07861	726.56946	36.65854	-636.72803	-751.19641	-11.60160	502.51465	690.38885	-13.27069	511.84390	-56.21400	1347.29858	-900.22302	
854	8.530	-844.25879	36.35682	-631.26080	725.80817	37.19333	-636.78375	-751.86908	-11.91661	502.74335	690.08813	-13.31743	511.93024	-57.62123	1347.67590	-898.98767	
855	8.540	-844.71527	36.77184	-631.09332	725.06873	37.52320	-636.75104	-752.39044	-11.87712	502.72968	689.75482	-13.43732	511.99042	-57.95921	1347.91296	-898.29608	
856	8.550	-845.14520	36.98130	-631.17499	724.68304	37.62894	-636.65070	-753.01233	-11.90982	502.92227	688.55231	-13.72758	512.06995	-58.60230	1348.16223	-897.63879	
857	8.560	-845.82635	37.27531	-631.21942	724.04041	37.91371	-636.62732	-753.50928	-12.03318	503.00958	687.84631	-14.00610	512.09863	-59.03608	1348.58643	-897.56329	
858	8.570	-846.34625	37.66404	-630.99683	723.64178	38.26707	-636.46405	-753.90033	-12.25534	503.01251	687.53387	-14.20377	512.25891	-59.35088	1348.99817	-897.57037	
859	8.580	-846.83276	38.23516	-631.06622	723.09344	38.39286	-636.39545	-754.47607	-12.53733	502.97791	687.31134	-14.31647	512.27820	-59.66898	1349.34619	-897.63092	
860	8.590	-847.22949	38.57420	-630.98901	722.69678	38.54723	-636.30963	-755.06049	-12.73371	502.94995	687.13324	-14.40606	512.30212	-59.97042	1349.60706	-897.68982	
861	8.600	-847.70508	38.27450	-630.74994	722.32843	38.63178	-636.32751	-755.32916	-12.78695	503.07248	686.30975	-14.77594	512.18195	-60.49408	1350.22058	-897.65826	
862	8.610	-848.07465	38.42934	-630.70947	721.89514	39.11224	-636.27612	-755.92261	-12.59963	503.21341	685.69061	-14.85552	512.34906	-61.10949	1350.72375	-897.25928	
863	8.620	-848.47168	38.75253	-630.70215	721.45233	39.34476	-636.24536	-756.29163	-13.05333	503.17142	685.47949	-14.99717	512.40283	-61.47184	1350.88159	-896.55054	
